<svg viewBox="0 0 220 220" xmlns="http://www.w3.org/2000/svg">
  <g transform="translate(-5.85,-17.5)">
    <path d="
      M 30 178
      C 44 154, 58 132, 74 112
      C 80 105, 88 108, 86 116
      C 76 138, 64 160, 52 182
      C 48 190, 36 189, 30 178
      Z
    " fill="#ec4d4d"/>
    <path d="
      M 46 196
      C 58 166, 74 140, 94 116
      C 118 90, 146 68, 174 54
      C 184 49, 193 49, 199 56
      C 204 63, 201 72, 192 79
      C 168 96, 144 116, 124 140
      C 106 161, 90 180, 76 198
      C 68 207, 53 207, 46 196
      Z
    " fill="#720707"/>
  </g>
</svg>
